PathFileType	4	(X/Y/Z)	Patient4_TMGait_0pt4_03_left_35.trc.trc
DataRate	CameraRate	NumFrames	NumMarkers	Units	OrigDataRate	OrigDataStartFrame	OrigNumFrames
74.074074074074	74.074074074074	4	33	mm	74.074074074074	53	       141
Frame#	Time	Sacral			L.Shoulder			Chest			R.Shoulder			Neck			R.ASIS			L.ASIS			R.Thigh.Superior			R.Thigh.Lateral			R.Thigh.Inferior			R.Patella			L.Thigh.Superior			L.Thigh.Lateral			L.Thigh.Inferior			L.Patella			L.Shank.Superior			L.Shank.Lateral			L.Shank.Inferior			R.Shank.Superior			R.Shank.Lateral			R.Shank.Inferior			R.Heel			R.Midfoot.Superior			R.Midfoot.Lateral			R.Toe			L.Heel			L.Midfoot.Lateral			L.Midfoot.Superior			L.Toe			L.Elbow			L.Wrist			R.Elbow			R.Wrist			
		X1	Y1	Z1	X2	Y2	Z2	X3	Y3	Z3	X4	Y4	Z4	X5	Y5	Z5	X6	Y6	Z6	X7	Y7	Z7	X8	Y8	Z8	X9	Y9	Z9	X10	Y10	Z10	X11	Y11	Z11	X12	Y12	Z12	X13	Y13	Z13	X14	Y14	Z14	X15	Y15	Z15	X16	Y16	Z16	X17	Y17	Z17	X18	Y18	Z18	X19	Y19	Z19	X20	Y20	Z20	X21	Y21	Z21	X22	Y22	Z22	X23	Y23	Z23	X24	Y24	Z24	X25	Y25	Z25	X26	Y26	Z26	X27	Y27	Z27	X28	Y28	Z28	X29	Y29	Z29	X30	Y30	Z30	X31	Y31	Z31	X32	Y32	Z32	X33	Y33	Z33	

53	47.012000000000	856.736327905815	1008.322976438431	424.719068580109	1030.206683759659	1432.226220044585	216.702498328694	1138.885258042065	1371.247424023238	377.116251799259	1059.479908287332	1449.811593748167	551.383562920424	1022.523502799283	1499.304959163389	370.040276702930	1093.153521786154	951.141924941668	529.010031798109	1064.409814352063	965.585165856445	257.064203869674	1173.972194584760	778.435494000803	501.310277598277	1137.001250368101	658.467785390408	581.874287127828	1224.442064668116	617.492886619767	502.371675248764	1244.506616233300	507.322341694897	526.975355686733	1113.420372692743	753.550347173375	278.557349769111	1018.253832508409	637.678604880365	229.023113943750	1108.109045844942	560.467934032677	283.462805747995	1108.555013280063	491.891955433370	293.886917995096	1082.078133931896	419.847223190053	289.189588465939	988.721112593835	304.377909155159	245.961614608153	1046.705138849480	194.333417111052	315.407730814662	1171.460652658255	430.068622826782	539.585169191236	1056.006895092743	388.096448696331	609.855028390197	1040.900358992820	277.764597820960	564.033782046186	841.120091310072	212.054395636385	553.379724098770	1012.943647242184	155.513188843436	581.562727656019	905.853092619634	152.112661930978	621.916702831586	1080.344845940383	41.509273655486	600.756527811113	923.704522904129	38.894369873910	371.230453251440	991.660120647475	35.093372863594	285.229009630274	1077.068084042882	96.459523638744	306.265053163277	1203.531483147823	43.042156282249	269.513710095792	1045.318202110055	1087.969273727165	78.376224144091	1214.103491979784	887.509053710761	53.032358060353	990.385517455338	1115.192165478317	687.040026329246	1038.321130076454	857.581139470488	692.508695249271	
54	47.025500000000	855.678883985929	1009.108858639384	422.672861110335	1032.228704315111	1432.493407763598	215.432379958792	1138.857512433435	1371.611494170705	377.216118187686	1057.576217091676	1450.670447199746	550.405544962002	1022.851101441765	1499.788844211788	368.627520484791	1091.239315300951	952.217272271903	529.100484106855	1064.846228257110	965.972877476792	256.947329998789	1173.648314367183	781.488254232891	500.755273666244	1139.018965855735	661.252011653325	581.745998025145	1226.254074876855	621.130637377775	501.666394520540	1248.551154233026	512.020252930733	526.606202396671	1111.792571659697	752.922591262086	279.505796392496	1015.871711129080	637.821181711542	228.925545768640	1104.444858637994	559.885188051222	284.224768469901	1104.153405046562	491.466372860096	294.682216255196	1077.580698379698	419.650336938557	289.626795319503	984.119771707587	304.414818157432	246.012325777294	1041.632039953913	194.249145937016	315.615940105454	1178.116934828443	432.847001300621	539.562288212482	1064.749753501457	386.394372784858	610.128771979878	1053.955605334490	275.488112638680	564.447215000092	857.086010630053	201.573591027841	554.406848166088	1031.131792946784	152.438680915186	582.255486469074	924.449817338351	144.432308459677	622.787473364485	1103.050951145473	41.501331518628	600.896169459913	918.210907871287	38.877580200961	371.192755442498	986.211401494847	35.088588454879	285.183402620455	1071.620713334575	96.436860399628	306.286823426271	1198.101309709267	43.035628890719	269.483060332629	1050.901000461428	1089.138924731532	75.891408133839	1222.416789110783	890.945037155601	51.122667485013	979.003930800274	1118.376258403325	685.407815104835	1019.467529837848	859.449469516495	692.039952773144	
55	47.039000000000	854.673151167669	1009.855019884629	420.691116652414	1034.366579540720	1432.691283983239	214.335937276347	1138.878211249635	1371.906520375697	377.490033230117	1055.715681486242	1451.478662956232	549.575599989119	1023.243502624581	1500.206963890695	367.364482030262	1089.286662113924	953.172389821556	529.378830363630	1065.405134696578	966.353432298558	256.983779603434	1172.908971291592	784.031754157777	500.546278139253	1140.216207792903	663.647068533209	581.949472079618	1227.061487397585	624.070695860620	501.288405440328	1251.332385917649	516.327696267907	526.575208531086	1110.064270228555	752.274348692348	280.686465833229	1013.420369255260	637.970505891034	228.837923781100	1100.621510336685	559.302074258493	285.045134716400	1099.558561927820	491.051756467877	295.491676779084	1072.940692096834	419.462272793477	290.069835801688	979.433756504933	304.423905815201	246.050689831854	1036.488649106048	194.156992793310	315.819526193787	1184.036055025709	435.236449465003	539.871778478852	1073.361627326887	383.669443984610	610.777274991602	1067.664068405264	272.350080272043	565.177574453953	874.654773512657	189.098381434077	555.697325768863	1050.838502341939	148.551811338148	583.238833955623	944.843506099305	135.358104330358	623.965578518251	1127.840424094143	41.466879364516	601.488633997763	912.721309365712	38.852402851081	371.168927552577	980.758510720492	35.077221544158	285.146914875958	1066.170713199440	96.410974879961	306.321724850480	1192.668354445129	43.029022352665	269.465192165817	1056.084934999183	1090.209904112586	73.715285609941	1230.361424452529	894.332189472607	49.712290908795	968.355365208460	1121.620329643575	683.791823543478	1001.841518157896	861.652882241174	691.433285865769	
56	47.052500000000	853.723971384676	1010.533135429015	418.789161309188	1036.595750508466	1432.792677714784	213.421582855487	1138.952297234222	1372.099923847210	377.928456663241	1053.928767578213	1452.197720185410	548.899186023779	1023.713351158319	1500.533643171973	366.261713680221	1087.326582170537	953.962081822442	529.821794507929	1066.060875444848	966.698655855267	257.143307293843	1171.744914756477	785.957030451199	500.682886814272	1140.506582354939	665.559289337420	582.483152857894	1226.809350676002	626.202101599310	501.263594815030	1252.774135221552	520.134318853216	526.865596727108	1108.248379413047	751.604314086650	282.024605219141	1010.922844820485	638.112466885055	228.738022174687	1096.687909026454	558.716297788865	285.874663726577	1094.831947833795	490.643207537589	296.273707563240	1068.210593877825	419.271816177909	290.492320394291	974.697687929154	304.402195383488	246.058822309463	1031.297109423090	194.051310372554	316.008275869048	1189.135913001994	437.230361006526	540.499374114397	1081.834807754031	380.050660604066	611.803048463102	1081.939215958120	268.589453121363	566.207124926635	893.884534509372	175.092641503821	557.226651055176	1071.927489618981	144.188048303366	584.473331739779	966.980787315382	125.334548377443	625.417734255246	1154.409172979670	41.718448178855	602.491730754157	907.240452333953	38.819889277635	371.154518673399	975.303331181625	35.059764159176	285.117826337832	1060.720901448020	96.381113482149	306.368005430122	1187.234554102400	43.017453923428	269.460077360633	1060.871590238625	1091.137018568313	71.850006661707	1237.926511621666	897.624905629916	48.787686856086	958.471732066633	1124.826617105844	682.224961247572	985.503615773724	864.056670852073	690.765513095679	
